<svg width="50" height="48" viewBox="0 0 50 48" fill="none" xmlns="http://www.w3.org/2000/svg">
<path d="M18.3201 24.5629C18.28 28.143 18.28 31.6729 18.28 34.3476C18.28 37.5525 18.28 40.8477 18.3201 44.1378V44.4377V45.6078V47.2327V47.2323C18.2999 47.2742 18.2832 47.3178 18.2703 47.3624L18.2103 47.4273C18.1852 47.4472 18.1618 47.4688 18.1402 47.4925L18.0652 47.5225H4.00009C2.85054 47.549 1.74984 47.059 0.999931 46.1874C0.746727 45.8805 0.53014 45.545 0.355051 45.1875C0.32994 45.0874 0.284948 45.0023 0.25007 44.9375L0 44.4973V22.9974L0.149972 22.6424L0.199846 22.5175C0.24972 22.3975 0.309711 22.2577 0.374925 22.1126C0.719512 21.3523 1.2859 20.7137 1.99983 20.2812C2.71341 19.8484 3.54142 19.6415 4.37499 19.6876H18.4097L18.3647 21.6127C18.3647 22.1579 18.3647 22.8327 18.3347 23.4026C18.3047 23.9725 18.3197 24.4375 18.3197 24.5626L18.3201 24.5629Z" fill="#3A9DFF"/>
<path d="M20.3353 46.0976C18.7128 46.1195 17.1192 45.6679 15.7501 44.7977L14.86 44.2327V43.1777C14.8949 38.1777 14.9099 32.7581 14.9099 26.0679V21.5682L14.9102 20.8131L15.4103 20.2679L16.0001 19.5031C16.6 18.7895 17.1577 18.0418 17.67 17.2629C18.6099 15.7628 19.5199 14.163 20.3998 12.633C20.7699 11.993 21.1497 11.328 21.5298 10.673H21.5302C21.6198 10.5226 21.6603 10.3476 21.6453 10.1732C21.6003 9.108 21.5804 8.0331 21.5602 6.99828C21.5602 6.38828 21.5602 5.7532 21.5201 5.13338V5.13303C21.4786 4.24715 21.7 3.36858 22.1566 2.60796C22.6128 1.84729 23.2838 1.23868 24.0853 0.858148C26.0747 -0.201042 28.4414 -0.284077 30.5003 0.633194C31.7953 1.16716 32.7997 2.22988 33.2601 3.55309L33.725 4.76299C34.1449 5.86298 34.5749 6.99789 34.9701 8.13806C35.609 10.1323 35.699 12.262 35.2299 14.3029C35.0949 14.9928 34.9798 15.683 34.8599 16.398H35.97H43.7902C44.6687 16.3935 45.542 16.5337 46.3749 16.813C48.1337 17.4342 49.4364 18.9346 49.805 20.7628C49.805 20.8127 49.8399 20.8929 49.8699 20.9728L49.9198 21.1277L50 21.4178V23.688L49.8001 23.9531C49.6066 24.7716 49.2679 25.549 48.7999 26.248C48.9404 26.7369 49.0259 27.2402 49.0548 27.748C49.088 29.1536 48.6729 30.5337 47.87 31.6881C47.989 32.0955 48.0643 32.5143 48.095 32.9381C48.1783 34.4521 47.7678 35.9522 46.9249 37.213C47.0878 37.9883 47.1335 38.7839 47.0599 39.5728C46.9765 40.9393 46.476 42.2475 45.6258 43.3204C44.7755 44.3932 43.6165 45.1796 42.3052 45.573C41.1051 45.9368 39.854 46.1056 38.6002 46.0728H33.7603H20.3907H20.3356L20.3353 46.0976ZM18.6654 42.0327H18.665C19.2123 42.2263 19.7899 42.3194 20.3702 42.3075C24.8352 42.2824 29.3702 42.3075 33.7648 42.3075H38.5949C39.4473 42.3389 40.2994 42.236 41.1196 42.0027C41.7174 41.8422 42.2483 41.4956 42.6347 41.0125C43.0215 40.5295 43.244 39.9358 43.2698 39.3175C43.3364 38.7912 43.2852 38.2569 43.1199 37.7526C42.8625 36.9944 43.0055 36.1577 43.4997 35.5278C44.05 34.8767 44.3388 34.0445 44.3099 33.1928C44.2624 32.8751 44.1822 32.5633 44.0699 32.2627C43.7954 31.4577 43.9583 30.5683 44.4996 29.9127C44.9959 29.3508 45.2714 28.6274 45.2746 27.8779C45.248 27.6338 45.1996 27.3928 45.1298 27.1577C45.0747 26.9429 45.0147 26.7026 44.9648 26.4428C44.7898 25.7219 44.976 24.9608 45.4646 24.4028C45.8507 23.933 46.0984 23.3652 46.1796 22.7629V21.9928C46.1545 21.9077 46.1297 21.8177 46.1046 21.718C45.8696 20.7979 45.4598 20.5381 45.1047 20.408C44.6667 20.2692 44.2091 20.2015 43.7497 20.2078H35.9649H33.1098C32.4102 20.2838 31.7182 20.0076 31.2634 19.4705C30.8086 18.9334 30.6499 18.2055 30.8396 17.5278C30.9097 17.1027 30.9795 16.6779 31.0496 16.2527C31.1894 15.3829 31.3345 14.4827 31.5096 13.5877C31.8479 12.202 31.8047 10.7509 31.3848 9.38786C31.0147 8.30286 30.5899 7.19796 30.1847 6.13279L29.7145 4.89779H29.7149C29.619 4.55251 29.3675 4.2714 29.0348 4.13782C28.0212 3.6485 26.8343 3.6764 25.8449 4.21281C25.4961 4.32058 25.2722 4.65993 25.3099 5.023C25.3099 5.65811 25.3399 6.29808 25.35 6.91299C25.35 7.91289 25.3901 8.98298 25.4351 10.008H25.4347C25.4794 10.9067 25.2621 11.7996 24.8097 12.5777C24.4348 13.2226 24.0547 13.8828 23.6898 14.5176C22.7949 16.0777 21.8648 17.6925 20.8948 19.2577C20.3078 20.167 19.6664 21.0403 18.9748 21.8728L18.6999 22.2129V26.0727C18.7048 32.2626 18.6947 37.3574 18.6598 42.0324L18.6654 42.0327Z" fill="#3A9DFF"/>
</svg>
