<svg width="48" height="79" viewBox="0 0 48 79" fill="none" xmlns="http://www.w3.org/2000/svg">
<path d="M39.5158 0H7.8842C5.79318 0 3.7878 0.830654 2.30923 2.30923C0.830654 3.7878 0 5.79318 0 7.8842V71.1119C0 75.4687 3.5313 79 7.8842 79H39.5119C41.6032 79 43.609 78.1695 45.0882 76.691C46.5674 75.2125 47.399 73.2072 47.4 71.1158V7.8842C47.4 5.79318 46.5693 3.7878 45.0908 2.30923C43.6122 0.830654 41.6068 0 39.5158 0V0ZM23.7 75.05C20.9745 75.05 18.7625 73.2844 18.7625 71.1C18.7625 68.9157 20.9745 67.15 23.7 67.15C26.4255 67.15 28.6375 68.9157 28.6375 71.1C28.6375 73.2844 26.4255 75.05 23.7 75.05ZM39.5 63.2H7.9V7.9H39.5V63.2Z" fill="#3A9DFF"/>
</svg>
