<svg width="20" height="17" viewBox="0 0 20 17" fill="none" xmlns="http://www.w3.org/2000/svg">
<path d="M2.79999 8.80001C2.79999 7.376 3.22226 5.98394 4.01342 4.7999C4.80455 3.61585 5.92904 2.69302 7.24466 2.14807C8.56031 1.60312 10.008 1.46054 11.4046 1.73835C12.8013 2.01616 14.0842 2.7019 15.0912 3.70885C15.2083 3.826 15.3983 3.826 15.5154 3.70885C15.6326 3.59167 15.6326 3.40174 15.5154 3.28456C14.4246 2.19372 13.0348 1.45084 11.5217 1.14988C10.0087 0.848913 8.44034 1.00338 7.01507 1.59374C5.5898 2.18411 4.37162 3.18385 3.51451 4.46657C2.65745 5.74928 2.19998 7.25732 2.19998 8.80001H1.30001C1.17867 8.80001 1.06928 8.87312 1.02285 8.9852C0.976411 9.09731 1.00208 9.22634 1.08788 9.31214L2.28788 10.5121C2.40504 10.6293 2.59499 10.6293 2.71215 10.5121L3.91214 9.31214C3.99794 9.22634 4.02362 9.09731 3.97717 8.9852C3.93073 8.87312 3.82135 8.80001 3.7 8.80001H2.79999Z" fill="white" stroke="white" stroke-width="0.5"/>
<path d="M17.2877 7.08786C17.4048 6.97071 17.5948 6.97071 17.7119 7.08786L18.9119 8.28786C18.9977 8.37366 19.0234 8.5027 18.977 8.61481C18.9305 8.72692 18.8211 8.8 18.6998 8.8H17.7998C17.7998 10.3427 17.3423 11.8508 16.4853 13.1334C15.6282 14.4162 14.41 15.4159 12.9847 16.0063C11.5594 16.5967 9.99113 16.7511 8.47807 16.4501C6.96502 16.1492 5.57518 15.4063 4.48435 14.3154C4.3672 14.1983 4.3672 14.0083 4.48435 13.8912C4.6015 13.774 4.79146 13.774 4.90861 13.8912C5.91556 14.8981 7.19845 15.5838 8.59513 15.8617C9.99179 16.1395 11.4395 15.9969 12.7551 15.4519C14.0707 14.907 15.1952 13.9842 15.9864 12.8001C16.7775 11.6161 17.1998 10.224 17.1998 8.8H16.2998C16.1785 8.8 16.069 8.72692 16.0226 8.61481C15.9762 8.5027 16.0018 8.37366 16.0876 8.28786L17.2877 7.08786Z" fill="white" stroke="white" stroke-width="0.5"/>
</svg>
