<svg width="51" height="50" viewBox="0 0 51 50" fill="none" xmlns="http://www.w3.org/2000/svg">
<path d="M31.3739 10.5042C30.4923 10.5042 29.6466 10.8543 29.0233 11.478C28.3997 12.1012 28.0495 12.947 28.0495 13.8285C28.0495 14.7105 28.3997 15.5558 29.0233 16.1795C29.6466 16.8031 30.4923 17.1533 31.3739 17.1533C32.2559 17.1533 33.1012 16.8031 33.7248 16.1795C34.3485 15.5558 34.6987 14.7105 34.6987 13.8285C34.697 12.9473 34.3464 12.1024 33.7232 11.4793C33.1 10.8564 32.2555 10.5054 31.3739 10.5042L31.3739 10.5042Z" fill="#3A9DFF"/>
<path d="M27.2834 49.9999C33.7995 49.6277 48.7627 38.8982 48.9121 38.7916L48.9599 38.7545H48.9603C49.279 38.5823 49.5464 38.3272 49.7333 38.0166C49.9207 37.706 50.0206 37.3509 50.0239 36.9884C50.0215 36.4713 49.8239 35.9746 49.4709 35.5967C49.1178 35.2191 48.6354 34.9885 48.1194 34.951C47.7672 34.9236 47.4137 34.9934 47.0982 35.153L37.3373 39.6427C36.7479 40.4643 35.8002 40.9529 34.7892 40.9565H23.1828C22.8889 40.9565 22.651 40.7186 22.651 40.4247C22.651 40.1308 22.8889 39.8929 23.1828 39.8929H34.7892C35.1912 39.8917 35.5843 39.7749 35.921 39.5561C36.2577 39.337 36.5242 39.0256 36.6883 38.6586C36.6903 38.6427 36.6903 38.6268 36.6883 38.6109L36.7201 38.5256C36.7467 38.4566 36.7679 38.3819 36.7891 38.3076L36.821 38.1586H36.8214C36.8267 38.0664 36.8267 37.9742 36.8214 37.8819V37.7652C36.8238 37.726 36.8238 37.6868 36.8214 37.648C36.8169 37.5497 36.8042 37.4517 36.7842 37.3554C36.7659 37.2795 36.7426 37.2048 36.7148 37.1321L36.6671 36.9885C36.5042 36.6142 36.2361 36.2954 35.8949 36.0714C35.5541 35.8477 35.1549 35.7281 34.7468 35.7277H28.7784C28.6465 35.7273 28.5196 35.6779 28.4221 35.5893C28.1988 35.3873 27.9645 35.1906 27.7306 34.9987L27.5604 34.8657V34.8661C27.0715 34.4837 26.5617 34.1282 26.0336 33.802L25.9377 33.7436C25.6609 33.5734 25.4059 33.4139 25.1026 33.2596H25.0601L24.4748 32.9616L24.1981 32.8339L23.8471 32.6796L23.5014 32.5359L23.23 32.4294L22.8418 32.291H22.7622C22.4749 32.1951 22.1929 32.1102 21.9059 32.0355L21.5868 31.8764L21.2676 31.8074L20.9113 31.7384L20.6346 31.6906L20.2035 31.6376H20.0015C19.7836 31.6376 19.5705 31.6057 19.3632 31.6004H19.097C17.1714 31.558 15.5967 31.5527 14.602 31.5633C13.2882 31.5633 12.2401 31.5633 11.6552 31.5951V43.4042C13.3899 44.3822 23.108 49.9995 27.0712 49.9995L27.2834 49.9999Z" fill="#3A9DFF"/>
<path d="M25.9793 32.4997L26.3891 32.7389L26.5699 32.8507L26.6658 32.9091H26.703C26.9209 33.0474 27.134 33.1911 27.3413 33.3348L27.4156 33.3878L27.6017 33.5209L28.0805 33.8772L28.2135 33.9784L28.3201 34.0637C28.5433 34.2445 28.7617 34.4253 28.9743 34.5955H34.7827C34.9611 34.5968 35.1391 34.6127 35.315 34.6433H35.3574C35.5252 34.68 35.6905 34.7282 35.8521 34.787H35.9158C36.0684 34.8462 36.2162 34.9172 36.3574 35L36.4211 35.0425C36.5594 35.1237 36.6896 35.218 36.8096 35.3245H36.8415V23.063H25.8787V32.4464C25.9138 32.4611 25.9477 32.4787 25.9795 32.4995L25.9793 32.4997Z" fill="#3A9DFF"/>
<path d="M37.9326 37.9737V38.1916L46.6189 34.186V34.1864C46.7601 34.1195 46.9058 34.0624 47.0552 34.0158L47.183 33.984C47.2928 33.9534 47.4046 33.9305 47.5181 33.915C47.5446 33.9126 47.5711 33.9126 47.5977 33.915V16.1376L31.374 3.72253L15.1504 16.1376V30.468H15.3046C16.2038 30.468 17.3846 30.468 18.7621 30.4998H19.4111C19.6343 30.4998 19.8686 30.4998 20.0972 30.537H20.3204C20.4747 30.537 20.629 30.5688 20.778 30.5953L21.0865 30.6431L21.4428 30.7121C21.5706 30.7386 21.693 30.7598 21.8151 30.7917L21.9906 30.8341C22.3363 30.9194 22.682 31.0202 23.0547 31.1321H23.1077C23.2816 31.1925 23.4587 31.2561 23.6396 31.3235L23.7938 31.3819C23.9587 31.4455 24.1289 31.5096 24.2938 31.5839L24.4799 31.6635L24.8469 31.8284L24.8477 22.5315C24.8477 22.2376 25.086 21.9996 25.3795 21.9996H37.4007C37.5419 21.9996 37.6774 22.0556 37.777 22.1551C37.8766 22.2551 37.9329 22.3902 37.9329 22.5315V37.6967V37.7763V37.8987C37.928 37.9236 37.928 37.9489 37.9329 37.9734L37.9326 37.9737ZM31.3737 18.2173C30.21 18.2173 29.0938 17.7549 28.2705 16.932C27.4477 16.1092 26.9852 14.9929 26.9852 13.8289C26.9852 12.6652 27.4477 11.549 28.2705 10.7257C29.0938 9.90291 30.21 9.44045 31.3737 9.44045C32.5378 9.44045 33.654 9.90289 34.4768 10.7257C35.3001 11.549 35.7621 12.6652 35.7621 13.8289C35.7609 14.9926 35.2981 16.108 34.4753 16.9305C33.6528 17.7533 32.5373 18.2162 31.3737 18.2173Z" fill="#3A9DFF"/>
<path d="M7.10164 40.9578C6.61267 40.9493 6.16697 41.2362 5.97266 41.6847C5.77797 42.1333 5.87307 42.6549 6.21347 43.006C6.55386 43.3566 7.07222 43.468 7.52645 43.2872C7.98072 43.1068 8.28112 42.6701 8.28765 42.1815C8.29663 41.5166 7.76644 40.9697 7.10152 40.9579L7.10164 40.9578Z" fill="#3A9DFF"/>
<path d="M10.6124 31.0419V30.5472C10.6124 30.1464 10.4533 29.7624 10.1696 29.4791C9.88634 29.1958 9.50226 29.0366 9.10142 29.0366H1.51098C1.11059 29.0378 0.727332 29.1974 0.444069 29.4807C0.161223 29.7635 0.00162999 30.1472 0 30.5472V44.1754C0 44.5762 0.159176 44.9603 0.442439 45.2436C0.725692 45.5268 1.11017 45.686 1.51102 45.686H9.10146C9.50226 45.686 9.88634 45.5268 10.1696 45.2436C10.4533 44.9603 10.6125 44.5762 10.6125 44.1754L10.6124 31.0419ZM7.10147 44.4465V44.4469C6.49741 44.4526 5.91617 44.2175 5.486 43.7935C5.05581 43.3698 4.81215 42.7919 4.80888 42.1878C4.80561 41.5842 5.04275 41.0038 5.46845 40.5752C5.89415 40.1466 6.4725 39.905 7.0766 39.9042C7.68066 39.9034 8.25981 40.1429 8.68674 40.5699C9.11367 40.9972 9.35285 41.5768 9.35163 42.1808C9.35163 42.7788 9.1149 43.3531 8.69368 43.7775C8.27206 44.202 7.69984 44.4424 7.10151 44.4469L7.10147 44.4465Z" fill="#3A9DFF"/>
<path d="M50.401 15.6103C50.7536 15.1454 50.6659 14.4834 50.2042 14.1263L32.0173 0.217032C31.6369 -0.072344 31.1104 -0.072344 30.73 0.217032L12.543 14.1263C12.1443 14.5002 12.0937 15.1153 12.4263 15.5495C12.7585 15.9834 13.3655 16.0948 13.8304 15.8071L14.2933 15.4507L31.0487 2.65843C31.2389 2.51354 31.5022 2.51354 31.6924 2.65843L48.4479 15.4779L48.916 15.8342C49.3879 16.1807 50.0511 16.0807 50.4001 15.6106L50.401 15.6103Z" fill="#3A9DFF"/>
</svg>
