<svg width="759" height="480" viewBox="0 0 759 480" fill="none" xmlns="http://www.w3.org/2000/svg">
<g opacity="0.5">
<path d="M557.597 308.845C557.597 302.91 557.752 297.363 557.558 291.815C557.441 288.285 558.606 286.695 562.37 286.927C566.251 287.16 570.133 287.121 574.014 286.927C577.429 286.772 578.671 288.091 578.632 291.505C578.555 302.832 578.71 314.121 578.826 325.449C578.826 326.496 578.981 327.544 579.991 328.785C581.31 323.431 582.862 318.156 583.833 312.763C584.376 309.699 585.618 308.768 588.684 308.807C614.726 308.923 640.807 308.807 666.849 309C668.557 309 671.08 310.281 671.895 311.716C700.77 362.612 729.451 413.586 758.172 464.56C758.404 464.948 758.482 465.375 758.948 466.578C753.631 466.578 748.585 466.849 743.656 466.384C742.375 466.267 741.056 464.056 740.202 462.543C724.018 433.836 707.872 405.091 691.727 376.345C684.586 363.66 677.484 350.975 670.342 338.289C669.527 336.815 668.596 335.419 667.354 333.324C666.228 335.186 665.336 336.543 664.56 337.94C641.583 378.828 618.569 419.677 595.787 460.681C593.303 465.181 590.664 467.586 585.424 466.694C583.483 466.345 581.427 466.655 578.904 466.655C579.758 461.496 580.534 456.724 581.427 451.254C575.45 451.254 569.938 451.06 564.427 451.332C560.896 451.526 558.877 450.323 557.092 447.181C547.079 429.724 536.833 412.384 526.664 395.043C525.81 393.608 524.918 392.173 523.404 389.651C514.167 422.004 491.424 444.427 472.096 469.448C469.457 467.935 466.934 466.5 463.829 464.716C463.713 470.302 464.373 475.927 458.823 480C459.444 475.19 460.026 471 460.569 466.81C456.766 467.547 453.661 468.129 450.556 468.711C457.853 462.388 463.946 456.181 462.199 446.25C457.27 449.897 452.264 453.388 447.568 457.306C446.403 458.276 445.976 460.604 445.938 462.31C445.86 466.849 443.919 468.478 439.34 468.44C431.616 468.362 423.932 469.06 416.208 469.099C413.841 469.099 411.473 467.741 409.028 467.392C400.335 466.19 392.068 467.664 384.228 471.582C382.715 472.319 381.24 473.056 378.911 474.22C380.619 464.25 382.21 455.056 383.84 445.435H300.203C298.922 452.341 297.641 459.285 296.283 466.616H291.004C248.817 466.616 206.629 466.578 164.481 466.694C160.91 466.694 159.086 465.491 157.107 462.621C152.76 456.414 150.858 450.052 154.623 441.634C144.726 444.698 142.553 438.104 139.37 432.711C120.974 401.871 102.5 371.069 84.0257 340.268C83.4047 339.259 82.6673 338.328 81.6582 336.931C80.5715 338.522 79.64 339.725 78.9026 341.005C58.9926 374.211 39.0438 407.38 19.289 440.664C17.3097 444 15.2527 445.629 11.294 445.203C7.76219 444.815 4.19158 445.125 0 445.125C0.776219 443.573 1.28076 442.332 1.94055 441.207C27.0512 399.388 52.2395 357.608 77.2726 315.789C78.9026 313.074 80.7655 312.492 83.6764 312.492C114.842 312.569 146.007 312.492 177.172 312.608C180.82 312.608 182.722 311.406 184.934 308.419C191.26 299.845 192.463 291.427 188.543 281.263C185.167 272.574 184.43 263.186 187.767 253.953C188.893 250.85 190.329 249.453 193.938 250.733C198.285 252.285 202.865 253.177 207.367 254.419C213.499 256.087 214.663 255.117 218.389 250.113C223.008 243.867 222.193 237.389 220.795 230.639C220.291 228.233 220.097 225.673 219.204 223.384C217.535 219.195 219.088 217.333 223.24 216.867C224.017 216.79 224.793 216.634 225.53 216.518C237.174 214.54 238.571 215.083 243.189 225.828C244.742 229.475 246.76 230.639 250.525 230.522C256.734 230.29 262.944 230.367 269.115 230.483C272.259 230.522 273.539 229.32 273.462 226.061C273.307 220.009 273.617 213.958 273.384 207.945C273.268 204.609 274.587 203.639 277.731 203.755C283.941 203.949 290.15 203.988 296.321 203.755C299.814 203.639 300.824 204.88 300.824 208.294C300.707 224.858 300.824 241.462 300.824 258.026C300.824 259.695 300.824 261.363 300.824 263.031C301.328 263.264 301.833 263.458 302.337 263.69C303.346 262.139 304.86 260.703 305.287 259.035C307.266 251.083 309.051 243.091 310.643 235.061C311.302 231.764 312.583 230.29 316.154 230.445C321.743 230.716 327.331 230.406 332.881 230.639C334.007 230.677 335.094 232.035 336.18 232.811C335.094 233.587 334.007 234.945 332.843 234.983C328.224 235.255 323.528 235.294 318.909 235.1C315.727 234.983 314.097 236.07 313.515 239.328C312.428 245.535 311.031 251.664 310.72 258.686C318.056 253.682 325.391 248.677 333.463 243.169C346.892 279.091 368.781 309.776 392.767 339.686C392.378 333.013 392.184 326.302 391.486 319.63C390.205 307.488 388.459 295.384 387.294 283.242C386.984 279.906 385.625 278.432 382.676 277.307C380.114 276.376 377.863 274.669 375.457 273.311L375.612 271.643C377.048 271.643 378.562 271.294 379.843 271.72C382.482 272.613 384.849 274.242 387.488 274.979C392.184 276.259 396.298 275.173 399.675 271.294C400.49 270.324 402.12 270.052 403.362 269.47C403.013 270.945 403.168 272.845 402.275 273.776C400.024 276.065 400.412 278.121 401.344 280.876C406.467 296.082 411.357 311.406 416.364 326.651C416.635 327.505 417.062 328.281 418.537 329.018C418.537 316.604 418.265 304.151 418.615 291.738C418.886 281.729 419.857 271.72 420.749 261.751C421.021 258.88 422.69 257.134 425.872 258.958C429.094 260.82 431.073 259.85 432.858 256.591C436.623 249.686 440.776 242.975 445.2 235.488H406.195C404.914 238.979 409.416 243.557 403.75 246.621C402.586 243.13 401.46 239.716 400.257 236.07C394.397 236.535 388.459 237.544 382.521 237.389C376.582 237.233 370.683 235.914 363.93 234.983C364.396 239.6 364.862 243.789 365.327 248.406C356.711 244.41 350.075 238.514 344.098 231.725C342.584 230.018 340.643 228.66 339.13 226.953C337.849 225.479 336.336 223.889 335.87 222.104C333.464 212.833 329.738 204.531 322.829 197.471C319.259 193.863 317.396 188.548 314.524 184.203C313.67 182.923 312.001 181.372 310.643 181.333C298.495 180.751 290.345 174.35 285.066 163.992C280.719 155.497 279.283 146.38 281.573 136.954C283.514 129.04 286.619 126.751 293.527 126.829C290.112 114.648 285.959 102.35 283.32 89.7425C281.302 80.1218 281.263 70.0744 280.293 60.221C279.943 56.846 281.806 54.8288 284.212 52.8892C301.794 38.5357 321.743 28.2944 342.545 19.6436C362.028 11.5358 381.977 4.94102 402.625 0.402235C404.255 0.0530983 405.924 -0.257246 408.446 0.324649C403.517 5.98843 398.549 11.6522 393.62 17.316C393.737 17.6651 393.892 18.053 394.009 18.4022C406.467 14.6393 418.925 10.8376 432.509 6.72549C428.744 15.2987 425.213 23.4065 421.758 31.3202C427.813 30.7384 433.984 30.1953 440.194 29.6134C440.388 30.0789 440.582 30.5056 440.776 30.9711C434.139 36.1306 431.461 43.54 429.21 51.0659C428.744 52.6564 428.667 54.7512 429.326 56.1866C434.178 66.6995 435.653 77.7167 435.303 89.1994C434.993 99.8287 435.226 110.497 435.226 121.592C436.429 121.165 437.011 121.165 437.166 120.893C442.056 113.639 447.8 115.773 450.672 122.678C456.766 137.419 455.213 152.005 448.421 166.126C447.335 168.376 445.317 170.897 443.104 171.712C439.301 173.109 439.573 175.979 438.641 178.889C434.76 190.759 430.84 202.63 426.222 214.229C422.496 223.617 422.03 223.462 412.638 230.096C414.656 230.251 416.092 230.406 417.528 230.406C428.085 230.406 438.602 230.522 449.159 230.367C452.186 230.328 453.894 231.414 455.407 234.014C469.224 257.677 483.235 281.225 497.013 304.927C498.72 307.875 500.545 308.923 503.96 308.884C520.105 308.69 536.212 308.807 552.357 308.807H557.713L557.597 308.845ZM338.858 179.122L338.742 179.005C339.402 180.363 339.79 181.953 340.721 183.117C345.883 189.673 350.812 196.501 356.517 202.553C369.829 216.596 385.121 226.643 405.729 225.44C415.665 224.858 421.409 219.738 422.263 209.69C422.379 208.333 422.573 206.936 422.806 205.268C423.854 205.734 424.592 206.083 425.523 206.509C430.607 193.591 435.342 180.712 434.527 166.514C433.518 148.165 432.548 129.777 431.5 111.428C431.422 110.225 431.5 108.751 430.801 107.898C421.603 95.7166 407.825 95.3675 400.141 105.531C399.636 106.191 399.054 106.734 398.317 107.548C397.075 100.333 400.024 94.6304 406.816 90.7511C416.092 85.4753 423.388 89.0442 430.374 97.0744C427.502 79.8503 421.137 65.1865 412.948 51.2598C411.59 48.9323 409.106 47.7297 406.35 50.2512C397.734 58.2038 387.217 60.4926 375.845 60.3374C373.439 60.2986 370.955 60.7641 368.587 61.346C358.07 63.9452 347.591 66.5443 337.189 69.4926C335.326 70.0357 333.037 71.9365 332.493 73.721C330.786 79.152 329.466 84.7382 328.651 90.3632C328.069 94.2425 328.535 98.277 328.535 102.661C338.975 94.1649 349.531 88.4623 362.572 94.6692C367.928 97.2295 370.179 102.04 370.683 108.286C360.709 98.6649 349.531 98.5873 338.897 105.143C332.222 109.255 330.669 117.324 329.505 125.277C346.232 117.324 357.099 119.148 360.165 130.514C355.275 125.587 349.725 123.376 343.089 124.462C335.171 125.742 329.738 132.725 330.708 140.367C331.445 145.915 335.715 148.165 344.641 147.583C347.552 147.389 350.463 147.195 353.412 147.001C347.746 151.385 341.575 152.626 334.977 150.88C329.738 149.484 325.779 152.316 326.982 157.785C328.806 165.893 332.493 173.38 338.858 179.199V179.122ZM87.7903 317.962C88.7606 319.901 89.1875 321.065 89.8473 322.074C99.6665 338.212 109.641 354.272 119.305 370.487C121.323 373.862 123.069 373.94 126.291 372.311C137.43 366.608 148.762 361.138 160.017 355.63C168.75 351.324 177.599 347.173 186.215 342.673C187.496 342.013 188.621 339.919 188.738 338.444C189.087 333.712 188.738 328.901 189.048 324.169C189.436 318.117 189.397 317.807 183.304 317.807C153.226 317.729 123.186 317.69 93.1074 317.69C91.5938 317.69 90.119 317.884 87.8291 318L87.7903 317.962ZM662.425 314.819C660.911 314.431 660.368 314.16 659.786 314.16C636.849 314.238 613.911 314.315 591.013 314.509C589.771 314.509 588.568 315.828 587.326 316.565C588.141 317.729 588.762 319.242 589.848 319.979C596.485 324.246 603.238 328.358 609.953 332.509C619.034 338.095 628.116 343.759 637.314 349.151C638.556 349.888 641.777 349.811 642.243 348.996C649.035 337.94 655.478 326.69 662.386 314.858L662.425 314.819ZM411.202 373.668C411.59 373.552 411.939 373.436 412.327 373.319C412.909 370.643 413.724 368.005 413.996 365.328C414.811 357.996 417.334 350.199 415.743 343.41C411.008 323.121 404.565 303.22 398.899 283.126C397.967 279.867 396.143 279.13 392.999 279.789C389.235 280.604 390.671 283.048 390.942 285.22C392.65 298.255 394.474 311.25 395.988 324.324C396.725 330.763 395.677 337.707 397.696 343.643C401.227 353.962 406.544 363.699 411.124 373.668H411.202ZM297.253 259.035C297.253 241.889 297.292 226.294 297.098 210.699C297.098 209.846 294.808 208.449 293.488 208.333C289.491 208.022 285.416 208.333 281.418 208.178C278.08 208.061 276.605 209.264 276.761 212.755C276.955 217.876 276.877 222.958 276.916 228.078C276.942 232.863 274.574 235.268 269.814 235.294C263.565 235.294 257.278 235.294 251.029 235.294C250.913 235.837 250.796 236.38 250.68 236.923C265.7 244.061 280.681 251.16 297.253 259.035ZM221.378 259.229C210.381 259.384 205.193 263.212 205.814 270.712C205.814 270.712 205.814 271.022 205.814 271.177C205.814 274.048 207.406 275.483 210.2 275.406C217.923 275.212 225.686 275.367 233.331 274.591C242.025 273.738 241.792 273.389 242.84 264.893C243.267 261.557 242.335 260.354 239.114 260.199C232.477 259.889 225.841 259.462 221.339 259.229H221.378ZM232.4 242.354C231.313 244.914 229.838 247.746 229.023 250.772C228.674 252.091 229.761 255.117 230.226 255.117C232.982 255.156 236.281 257.522 238.454 253.604C243.616 244.449 244.198 235.294 239.308 225.751C236.281 219.854 235.078 219.04 227.354 220.863C229.023 227.962 230.653 235.061 232.361 242.354H232.4ZM461.423 364.668L460.142 365.018C457.62 381.582 455.136 398.186 452.613 414.75C453.234 414.944 453.855 415.138 454.476 415.332C456.067 410.677 458.163 406.099 459.133 401.289C460.919 392.522 462.355 383.832 470.699 378.052C467.439 373.358 464.45 369.013 461.423 364.707V364.668ZM207.406 283.94C207.949 287.897 208.259 291.505 208.997 295.035C209.152 295.811 210.937 296.936 211.752 296.781C217.885 295.733 224.172 294.88 230.071 292.94C233.991 291.66 234.767 287.742 233.836 283.94H207.406ZM246.372 276.376C243.771 279.169 240.473 281.186 239.502 284.018C237.018 291.195 235.66 298.759 233.642 306.13C232.904 308.807 233.758 310.901 236.203 310.94C237.989 310.94 239.968 309.311 241.482 307.953C242.18 307.332 241.986 305.664 242.258 304.19C240.938 304.345 240.007 304.462 238.687 304.617C241.482 300.039 244.276 295.966 246.488 291.621C248.933 286.85 248.468 281.807 246.372 276.376ZM572.888 310.087C573.431 309.854 573.975 309.66 574.518 309.427C574.518 305.975 574.518 302.483 574.518 299.031C574.596 291.893 574.596 291.776 567.532 292.048C565.63 292.126 562.176 293.212 562.176 293.832C562.176 297.324 561.982 301.513 563.806 304.151C565.708 306.906 569.783 308.147 572.888 310.087ZM310.099 167.833C311.07 158.833 306.684 151.889 303.695 144.673C302.143 140.91 299.582 137.38 296.942 134.238C295.623 132.648 293.139 131.639 291.043 131.251C290.189 131.096 288.909 133.229 287.822 134.354C288.909 135.014 289.995 136.333 291.043 136.294C295.662 136.139 298.107 139.048 299.232 142.617C300.979 148.165 302.221 153.906 303.075 159.686C303.695 163.915 305.752 166.281 310.138 167.91L310.099 167.833ZM434.76 136.992C435.303 137.186 435.847 137.38 436.39 137.535C437.554 135.247 438.447 132.725 439.961 130.669C442.056 127.76 445.86 127.488 446.753 130.281C447.762 133.462 448.616 138.273 446.985 140.29C443.492 144.557 444.773 149.096 444.113 153.479C443.997 154.372 445.511 155.497 446.287 156.544C447.063 155.613 448.421 154.682 448.499 153.712C448.848 146.38 449.275 138.971 448.965 131.639C448.81 128.574 447.102 125.51 445.627 122.639C444.502 120.389 442.212 119.962 441.009 122.406C438.68 127.139 436.856 132.104 434.838 136.954L434.76 136.992ZM234.845 341.781C234.573 341.509 234.302 341.276 233.991 341.005C229.023 346.707 222.736 349.656 213.732 349.849C218.661 353.69 222.348 356.561 226.307 359.664C227.471 357.763 228.363 356.561 228.984 355.203C231.003 350.781 232.866 346.281 234.806 341.781H234.845ZM447.218 451.681C456.727 447.608 463.985 435.621 461.928 431.276C458.823 433.604 455.369 436.746 451.488 439.112C446.442 442.177 445.899 446.328 447.218 451.72V451.681ZM231.352 302.212C223.512 303.143 217.264 303.88 211.015 304.617C211.287 312.22 211.985 312.802 219.049 310.63C221.378 309.932 223.861 309.194 225.841 307.837C227.781 306.557 229.179 304.462 231.352 302.173V302.212ZM227.238 316.332C224.172 317.729 221.416 319.203 218.544 320.25C213.382 322.113 213.305 322.113 216.099 327.156C223.745 325.992 228.752 321.259 227.238 316.332ZM466.274 440.586C466.003 440.703 465.77 440.858 465.498 440.974C465.498 446.289 465.382 451.604 465.576 456.918C465.615 458.431 466.585 459.866 467.09 461.379C467.749 461.185 468.409 460.953 469.108 460.759C468.176 454.047 467.206 447.297 466.274 440.586Z" fill="url(#paint0_linear_136_316)"/>
<path d="M627.029 299.458C627.029 290.768 626.874 282.272 627.107 273.815C627.185 270.673 626.331 269.121 623.148 268.307C615.774 266.406 610.923 261.247 607.469 254.768C602.423 245.303 600.871 234.906 600.017 224.393C597.494 193.747 606.499 165.428 618.142 137.73C621.363 130.049 625.128 122.562 628.66 114.997C629.281 113.639 630.134 112.398 631.105 110.691C631.881 111.7 632.463 112.243 632.773 112.863C644.844 136.799 655.167 161.432 660.368 187.85C664.133 206.898 664.094 225.984 658.932 244.798C655.827 256.165 650.161 265.591 637.702 269.083C636.538 269.393 635.257 271.721 635.219 273.195C634.947 279.828 635.102 286.501 635.102 293.173C635.102 297.958 632.411 300.078 627.029 299.535V299.458ZM628.233 124.075C627.573 124.075 626.913 124.075 626.253 124.075C622.178 133.734 618.064 143.355 613.484 154.178C622.527 154.178 630.057 154.255 637.547 154.023C638.207 154.023 639.643 151.618 639.371 150.88C635.801 141.88 631.997 132.997 628.233 124.075Z" fill="url(#paint1_linear_136_316)"/>
<path d="M568.929 160.85C579.68 183.078 589.577 205.074 588.102 230.095C587.714 236.458 586.123 242.897 584.26 249.026C582.824 253.876 579.369 257.716 574.208 259.229C571.336 260.082 570.792 261.828 570.831 264.427C570.909 268.151 571.025 271.876 570.715 275.561C570.637 276.647 569.201 277.656 568.386 278.664C567.726 277.656 566.562 276.686 566.484 275.638C566.251 271.643 566.523 267.57 566.29 263.574C566.213 262.294 565.359 260.315 564.388 259.966C553.677 256.242 551.387 247.087 549.796 237.583C547.35 222.919 549.834 208.721 554.298 194.716C555.501 190.953 557.286 189.169 561.206 189.634C562.137 189.751 563.069 189.634 564 189.634C573.509 189.634 573.625 189.479 569.9 180.44C569.085 178.423 568.502 176.251 567.338 174.466C564.156 169.734 565.048 165.505 568.891 160.85H568.929Z" fill="url(#paint2_linear_136_316)"/>
<path d="M666.384 466.384H651.015V446.522C655.478 446.522 659.631 446.367 663.745 446.638C664.676 446.677 666.229 448.112 666.267 448.966C666.5 454.63 666.384 460.332 666.384 466.423V466.384Z" fill="url(#paint3_linear_136_316)"/>
<path d="M644.96 466.384H629.785V446.522C634.171 446.522 638.285 446.367 642.399 446.638C643.291 446.677 644.844 448.112 644.883 448.966C645.115 454.63 644.999 460.293 644.999 466.384H644.96Z" fill="url(#paint4_linear_136_316)"/>
<path d="M78.7864 446.522C83.2496 446.522 87.5576 446.367 91.8269 446.638C92.6419 446.677 93.9615 448.345 94.0003 449.276C94.1943 454.823 94.1167 460.371 94.1167 466.229H78.7864V446.483V446.522Z" fill="url(#paint5_linear_136_316)"/>
<path d="M79.0193 439.345C79.4074 429.336 85.5783 421.384 94.0779 419.909C94.0779 425.651 94.1944 431.353 93.9615 437.017C93.9615 437.832 92.3314 439.19 91.3612 439.267C87.3636 439.5 83.3273 439.384 79.0193 439.384V439.345Z" fill="url(#paint6_linear_136_316)"/>
<path d="M629.824 439.345C631.337 428.25 636.654 421.5 644.96 419.987C644.96 425.728 645.076 431.392 644.844 437.056C644.844 437.832 643.175 439.189 642.204 439.228C638.207 439.461 634.171 439.345 629.863 439.345H629.824Z" fill="url(#paint7_linear_136_316)"/>
<path d="M665.375 439.073H650.976V420.026C659.165 421.384 665.957 430.423 665.375 439.073Z" fill="url(#paint8_linear_136_316)"/>
<path d="M100.249 420.026C108.089 421.539 114.143 429.453 114.648 438.957H100.249V420.026Z" fill="url(#paint9_linear_136_316)"/>
<path d="M105.721 466.384H100.132V446.754H109.136C108.011 453.31 106.885 459.789 105.721 466.384Z" fill="url(#paint10_linear_136_316)"/>
<path d="M338.858 179.121C332.493 173.341 328.806 165.854 326.982 157.708C325.74 152.277 329.738 149.406 334.977 150.803C341.614 152.548 347.746 151.307 353.413 146.923C350.502 147.117 347.591 147.311 344.641 147.505C335.715 148.048 331.446 145.837 330.708 140.29C329.699 132.686 335.171 125.665 343.089 124.385C349.726 123.337 355.276 125.548 360.166 130.436C357.1 119.07 346.233 117.247 329.505 125.199C330.669 117.247 332.222 109.178 338.897 105.066C349.531 98.5096 360.67 98.5872 370.683 108.208C370.179 101.962 367.928 97.1131 362.572 94.5915C349.531 88.3847 338.936 94.0872 328.535 102.583C328.535 98.1993 328.069 94.1648 328.651 90.2855C329.505 84.6605 330.786 79.0355 332.493 73.6433C333.037 71.8976 335.327 69.958 337.19 69.4149C347.591 66.4666 358.109 63.8675 368.588 61.2684C370.955 60.6865 373.439 60.2209 375.845 60.2597C387.217 60.4537 397.735 58.1649 406.351 50.1736C409.067 47.652 411.59 48.8934 412.949 51.1822C421.099 65.1477 427.503 79.8114 430.375 96.9967C423.389 88.9666 416.092 85.4364 406.816 90.6734C400.024 94.5527 397.075 100.255 398.317 107.471C399.093 106.656 399.675 106.074 400.141 105.454C407.825 95.3286 421.642 95.639 430.802 107.82C431.461 108.673 431.423 110.148 431.5 111.35C432.509 129.699 433.518 148.087 434.527 166.436C435.304 180.596 430.569 193.514 425.523 206.432C424.592 206.005 423.816 205.656 422.807 205.19C422.612 206.897 422.38 208.255 422.263 209.613C421.409 219.66 415.665 224.781 405.73 225.363C385.121 226.565 369.83 216.518 356.517 202.475C350.773 196.423 345.883 189.596 340.721 183.04C339.79 181.876 339.402 180.324 338.742 178.966C346.233 176.91 351.317 180.596 355.974 185.833C358.846 189.052 362.184 191.846 365.522 194.639C375.768 203.173 387.566 204.57 400.102 201.505C407.243 199.759 412.56 195.453 415.588 188.626C415.743 188.238 415.782 187.772 415.937 187.035C414.85 187.656 413.996 188.121 412.095 189.246C415.588 183.117 415.2 175.863 422.962 173.884C419.081 172.41 415.277 171.053 412.483 175.009C408.252 180.984 402.741 184.165 395.367 184.436C381.667 184.902 368.859 180.634 355.858 177.259C355.547 177.182 355.353 176.561 354.887 175.902C356.789 175.397 358.458 174.971 360.166 174.544C352.753 174.544 344.874 172.604 338.897 179.083L338.858 179.121ZM401.111 131.406C404.449 130.281 407.67 129.117 407.864 134.393C409.184 133.928 410.581 133.811 410.736 133.307C411.668 130.087 412.328 126.79 413.181 122.872C410.62 122.29 408.291 121.785 405.652 121.165C409.106 118.139 412.677 116.51 416.83 118.372C421.526 120.505 423.583 124.695 423.816 129.583C424.281 138.66 415.743 137.691 410.503 140.716C417.8 142.772 424.281 141.221 427.153 136.953C430.219 132.376 429.172 123.803 424.825 118.255C420.788 113.096 415.161 111.04 409.65 113.523C402.043 116.936 400.84 119.225 401.15 131.328L401.111 131.406ZM385.082 164.264C386.635 165.622 387.993 167.6 389.856 168.337C400.607 172.527 402.974 174.001 408.252 164.884C409.184 163.255 409.378 160.617 408.757 158.833C407.554 155.38 406.157 151.501 403.634 149.096C398.123 143.82 397.308 137.303 397.075 130.436C396.92 126.285 397.191 122.096 397.191 117.945C397.191 117.053 396.997 116.199 396.881 115.307C392.844 128.225 390.671 140.833 400.84 152.044C402.159 153.518 403.129 155.341 404.1 157.126C407.049 162.557 405.497 165.66 399.171 165.777C394.63 165.854 390.05 164.884 385.082 164.303V164.264ZM350.735 129.66C347.164 127.255 343.593 127.255 340.372 129.699C337.888 131.6 336.413 134.199 337.772 137.419C338.043 137.07 338.315 136.682 338.548 136.333C341.109 137.341 343.671 138.389 346.233 139.397C352.792 139.203 348.328 132.958 350.735 129.699V129.66ZM380.347 207.906C389.08 211.902 397.541 212.561 405.497 206.393C397.308 210.389 388.847 209.807 380.347 207.906Z" fill="white"/>
<path d="M87.7905 317.961C90.0804 317.806 91.594 317.651 93.0688 317.651C123.147 317.651 153.187 317.729 183.265 317.767C189.359 317.767 189.398 318.078 189.009 324.13C188.699 328.862 189.087 333.673 188.699 338.405C188.583 339.918 187.457 341.974 186.176 342.634C177.521 347.134 168.711 351.285 159.979 355.591C148.724 361.099 137.43 366.569 126.252 372.272C123.031 373.94 121.284 373.862 119.266 370.448C109.602 354.233 99.6278 338.173 89.8087 322.035C89.1877 320.987 88.722 319.862 87.7517 317.923L87.7905 317.961Z" fill="white"/>
<path d="M662.425 314.819C655.517 326.651 649.074 337.901 642.282 348.957C641.778 349.772 638.595 349.849 637.353 349.112C628.116 343.72 619.073 338.056 609.992 332.47C603.277 328.319 596.524 324.246 589.887 319.94C588.762 319.203 588.18 317.69 587.365 316.526C588.607 315.828 589.81 314.509 591.052 314.47C613.989 314.237 636.887 314.199 659.825 314.121C660.407 314.121 660.95 314.393 662.464 314.781L662.425 314.819Z" fill="white"/>
<path d="M411.163 373.668C406.583 363.698 401.266 353.961 397.734 343.643C395.716 337.707 396.764 330.763 396.027 324.324C394.513 311.289 392.689 298.255 390.981 285.22C390.71 283.048 389.274 280.604 393.038 279.789C396.182 279.091 398.006 279.867 398.938 283.125C404.604 303.22 411.047 323.121 415.782 343.41C417.373 350.199 414.85 357.996 414.035 365.328C413.724 368.005 412.909 370.681 412.366 373.319C411.978 373.436 411.629 373.552 411.241 373.668H411.163Z" fill="white"/>
<path d="M297.214 259.035C280.642 251.16 265.661 244.061 250.641 236.923C250.758 236.38 250.874 235.837 250.99 235.294C257.239 235.294 263.526 235.294 269.775 235.294C274.536 235.294 276.903 232.888 276.877 228.078C276.877 222.957 276.916 217.837 276.722 212.755C276.567 209.263 278.042 208.061 281.379 208.177C285.416 208.332 289.452 208.022 293.45 208.332C294.769 208.449 297.059 209.845 297.059 210.699C297.292 226.294 297.214 241.888 297.214 259.035Z" fill="white"/>
<path d="M221.339 259.229C225.841 259.5 232.478 259.927 239.114 260.199C242.297 260.354 243.228 261.556 242.84 264.893C241.792 273.349 242.025 273.737 233.331 274.591C225.647 275.328 217.923 275.211 210.2 275.405C207.444 275.483 205.853 274.086 205.814 271.177C205.814 271.022 205.814 270.867 205.814 270.712C205.193 263.212 210.381 259.384 221.378 259.229H221.339Z" fill="white"/>
<path d="M232.361 242.354C230.654 235.061 228.985 227.962 227.355 220.863C235.078 219.078 236.281 219.854 239.308 225.751C244.199 235.294 243.617 244.41 238.455 253.604C236.281 257.483 232.982 255.156 230.227 255.117C229.761 255.117 228.674 252.091 229.024 250.772C229.8 247.746 231.313 244.914 232.4 242.354H232.361Z" fill="white"/>
<path d="M461.384 364.669C464.412 369.013 467.4 373.358 470.66 378.013C462.316 383.755 460.88 392.483 459.094 401.25C458.124 406.061 456.028 410.638 454.437 415.293C453.816 415.099 453.195 414.905 452.574 414.711C455.097 398.147 457.581 381.543 460.104 364.979L461.384 364.63V364.669Z" fill="white"/>
<path d="M207.406 283.94H233.836C234.767 287.742 233.991 291.66 230.071 292.94C224.172 294.88 217.924 295.694 211.753 296.781C210.899 296.936 209.152 295.811 208.997 295.035C208.26 291.505 207.91 287.897 207.406 283.94Z" fill="white"/>
<path d="M246.333 276.415C248.429 281.846 248.894 286.85 246.449 291.66C244.237 296.005 241.443 300.04 238.648 304.656C240.007 304.501 240.938 304.384 242.219 304.229C241.947 305.703 242.141 307.371 241.443 307.992C239.929 309.35 237.911 311.018 236.164 310.979C233.719 310.979 232.866 308.846 233.603 306.169C235.621 298.798 236.98 291.234 239.463 284.057C240.434 281.225 243.733 279.208 246.333 276.415Z" fill="white"/>
<path d="M572.888 310.126C569.783 308.225 565.708 306.945 563.807 304.19C561.982 301.552 562.138 297.363 562.177 293.871C562.177 293.251 565.631 292.165 567.532 292.087C574.596 291.815 574.596 291.932 574.518 299.07C574.518 302.522 574.518 306.014 574.518 309.466C573.975 309.699 573.432 309.893 572.888 310.126Z" fill="white"/>
<path d="M310.099 167.833C305.714 166.242 303.657 163.876 303.036 159.609C302.221 153.867 300.979 148.087 299.193 142.54C298.068 138.971 295.623 136.061 291.004 136.217C289.956 136.217 288.87 134.975 287.783 134.277C288.87 133.191 290.15 131.018 291.004 131.174C293.139 131.6 295.584 132.57 296.904 134.161C299.543 137.342 302.065 140.833 303.657 144.596C306.645 151.811 311.031 158.755 310.06 167.755L310.099 167.833Z" fill="white"/>
<path d="M434.76 136.992C436.778 132.143 438.603 127.139 440.931 122.445C442.134 120.001 444.424 120.389 445.55 122.678C446.986 125.548 448.732 128.613 448.887 131.678C449.237 139.01 448.81 146.38 448.422 153.751C448.383 154.721 446.986 155.652 446.209 156.583C445.433 155.574 443.92 154.41 444.036 153.518C444.696 149.135 443.415 144.596 446.908 140.329C448.538 138.311 447.645 133.501 446.675 130.32C445.821 127.566 442.018 127.798 439.883 130.708C438.37 132.764 437.477 135.247 436.313 137.574C435.769 137.38 435.226 137.186 434.683 137.031L434.76 136.992Z" fill="white"/>
<path d="M234.845 341.781C232.904 346.242 231.003 350.742 229.023 355.203C228.402 356.561 227.471 357.802 226.345 359.664C222.387 356.561 218.699 353.729 213.771 349.85C222.775 349.695 229.062 346.746 234.03 341.005C234.301 341.277 234.573 341.509 234.884 341.781H234.845Z" fill="white"/>
<path d="M447.218 451.681C445.86 446.289 446.442 442.138 451.488 439.073C455.408 436.707 458.862 433.604 461.928 431.237C463.985 435.621 456.727 447.569 447.218 451.642V451.681Z" fill="white"/>
<path d="M231.352 302.212C229.179 304.501 227.781 306.596 225.841 307.876C223.862 309.195 221.378 309.932 219.049 310.669C211.985 312.802 211.287 312.221 211.015 304.656C217.264 303.919 223.512 303.182 231.352 302.251V302.212Z" fill="white"/>
<path d="M227.238 316.332C228.752 321.259 223.745 325.991 216.099 327.155C213.344 322.151 213.421 322.112 218.544 320.25C221.416 319.203 224.172 317.729 227.238 316.332Z" fill="white"/>
<path d="M466.236 440.586C467.167 447.297 468.137 454.047 469.069 460.759C468.409 460.953 467.749 461.185 467.051 461.379C466.507 459.905 465.576 458.431 465.537 456.918C465.343 451.604 465.459 446.289 465.459 440.974C465.731 440.858 465.964 440.703 466.236 440.586Z" fill="white"/>
<path d="M628.272 124.074C632.036 132.997 635.84 141.88 639.41 150.88C639.721 151.617 638.285 153.984 637.586 154.022C630.057 154.255 622.566 154.178 613.523 154.178C618.103 143.354 622.178 133.734 626.292 124.074C626.952 124.074 627.612 124.074 628.272 124.074Z" fill="white"/>
<path d="M338.858 179.122C344.835 172.643 352.714 174.622 360.127 174.583C358.458 175.009 356.75 175.436 354.848 175.941C355.314 176.6 355.508 177.221 355.819 177.298C368.82 180.673 381.628 184.94 395.328 184.475C402.702 184.203 408.214 181.022 412.444 175.048C415.238 171.091 419.042 172.41 422.923 173.923C415.161 175.902 415.549 183.156 412.056 189.285C413.958 188.199 414.811 187.734 415.898 187.074C415.743 187.85 415.743 188.277 415.549 188.665C412.521 195.492 407.204 199.798 400.063 201.544C387.527 204.609 375.729 203.212 365.483 194.678C362.145 191.923 358.807 189.091 355.935 185.872C351.278 180.596 346.194 176.91 338.703 179.005L338.82 179.083L338.858 179.122ZM357.992 183.932C362.339 187.384 366.492 191.147 371.071 194.212C380.192 200.264 390.205 200.923 400.49 197.665C408.718 195.027 409.999 193.048 410.426 183.932C392.961 192.699 375.651 187.268 357.992 183.932Z" fill="url(#paint11_linear_136_316)"/>
<path d="M401.072 131.368C400.8 119.264 401.965 116.975 409.572 113.562C415.083 111.079 420.672 113.135 424.747 118.294C429.094 123.842 430.18 132.376 427.075 136.993C424.203 141.26 417.761 142.812 410.425 140.755C415.665 137.73 424.203 138.699 423.738 129.622C423.466 124.734 421.409 120.506 416.752 118.411C412.599 116.549 408.989 118.178 405.574 121.204C408.213 121.786 410.581 122.329 413.103 122.911C412.211 126.829 411.551 130.126 410.658 133.346C410.503 133.85 409.106 133.967 407.786 134.432C407.592 129.118 404.371 130.32 401.033 131.445L401.072 131.368Z" fill="url(#paint12_linear_136_316)"/>
<path d="M385.043 164.225C390.011 164.768 394.591 165.777 399.132 165.699C405.458 165.583 407.01 162.479 404.061 157.048C403.091 155.303 402.159 153.44 400.801 151.966C390.632 140.794 392.767 128.147 396.842 115.229C396.958 116.122 397.152 116.975 397.152 117.867C397.152 122.057 396.881 126.208 397.036 130.359C397.308 137.225 398.123 143.742 403.595 149.018C406.118 151.462 407.476 155.303 408.718 158.755C409.339 160.54 409.145 163.178 408.214 164.807C402.974 173.923 400.568 172.488 389.817 168.259C387.954 167.522 386.557 165.544 385.043 164.186V164.225Z" fill="url(#paint13_linear_136_316)"/>
<path d="M350.696 129.622C348.289 132.919 352.753 139.126 346.194 139.32C343.632 138.311 341.071 137.264 338.509 136.255C338.237 136.604 337.966 136.992 337.733 137.341C336.374 134.122 337.849 131.522 340.333 129.622C343.555 127.178 347.125 127.178 350.696 129.583V129.622Z" fill="url(#paint14_linear_136_316)"/>
<path d="M380.308 207.867C388.808 209.729 397.269 210.35 405.458 206.354C397.502 212.522 389.041 211.863 380.308 207.867Z" fill="url(#paint15_linear_136_316)"/>
<path d="M357.992 183.932C375.651 187.268 392.922 192.66 410.426 183.932C409.999 193.048 408.718 195.027 400.49 197.664C390.244 200.923 380.231 200.302 371.071 194.212C366.453 191.147 362.339 187.384 357.992 183.932Z" fill="white"/>
</g>
<defs>
<linearGradient id="paint0_linear_136_316" x1="379.474" y1="0" x2="379.474" y2="480" gradientUnits="userSpaceOnUse">
<stop stop-color="#3A9DFF"/>
<stop offset="1" stop-color="#295BFF"/>
</linearGradient>
<linearGradient id="paint1_linear_136_316" x1="631.306" y1="110.691" x2="631.306" y2="299.618" gradientUnits="userSpaceOnUse">
<stop stop-color="#3A9DFF"/>
<stop offset="1" stop-color="#295BFF"/>
</linearGradient>
<linearGradient id="paint2_linear_136_316" x1="568.542" y1="160.85" x2="568.542" y2="278.664" gradientUnits="userSpaceOnUse">
<stop stop-color="#3A9DFF"/>
<stop offset="1" stop-color="#295BFF"/>
</linearGradient>
<linearGradient id="paint3_linear_136_316" x1="658.714" y1="446.478" x2="658.714" y2="466.423" gradientUnits="userSpaceOnUse">
<stop stop-color="#3A9DFF"/>
<stop offset="1" stop-color="#295BFF"/>
</linearGradient>
<linearGradient id="paint4_linear_136_316" x1="637.407" y1="446.478" x2="637.407" y2="466.384" gradientUnits="userSpaceOnUse">
<stop stop-color="#3A9DFF"/>
<stop offset="1" stop-color="#295BFF"/>
</linearGradient>
<linearGradient id="paint5_linear_136_316" x1="86.4592" y1="446.478" x2="86.4592" y2="466.229" gradientUnits="userSpaceOnUse">
<stop stop-color="#3A9DFF"/>
<stop offset="1" stop-color="#295BFF"/>
</linearGradient>
<linearGradient id="paint6_linear_136_316" x1="86.5632" y1="419.909" x2="86.5632" y2="439.413" gradientUnits="userSpaceOnUse">
<stop stop-color="#3A9DFF"/>
<stop offset="1" stop-color="#295BFF"/>
</linearGradient>
<linearGradient id="paint7_linear_136_316" x1="637.406" y1="419.987" x2="637.406" y2="439.374" gradientUnits="userSpaceOnUse">
<stop stop-color="#3A9DFF"/>
<stop offset="1" stop-color="#295BFF"/>
</linearGradient>
<linearGradient id="paint8_linear_136_316" x1="658.193" y1="420.026" x2="658.193" y2="439.073" gradientUnits="userSpaceOnUse">
<stop stop-color="#3A9DFF"/>
<stop offset="1" stop-color="#295BFF"/>
</linearGradient>
<linearGradient id="paint9_linear_136_316" x1="107.448" y1="420.026" x2="107.448" y2="438.957" gradientUnits="userSpaceOnUse">
<stop stop-color="#3A9DFF"/>
<stop offset="1" stop-color="#295BFF"/>
</linearGradient>
<linearGradient id="paint10_linear_136_316" x1="104.634" y1="446.754" x2="104.634" y2="466.384" gradientUnits="userSpaceOnUse">
<stop stop-color="#3A9DFF"/>
<stop offset="1" stop-color="#295BFF"/>
</linearGradient>
<linearGradient id="paint11_linear_136_316" x1="380.813" y1="172.434" x2="380.813" y2="203.028" gradientUnits="userSpaceOnUse">
<stop stop-color="#3A9DFF"/>
<stop offset="1" stop-color="#295BFF"/>
</linearGradient>
<linearGradient id="paint12_linear_136_316" x1="414.942" y1="112.512" x2="414.942" y2="141.656" gradientUnits="userSpaceOnUse">
<stop stop-color="#3A9DFF"/>
<stop offset="1" stop-color="#295BFF"/>
</linearGradient>
<linearGradient id="paint13_linear_136_316" x1="397.06" y1="115.229" x2="397.06" y2="171.566" gradientUnits="userSpaceOnUse">
<stop stop-color="#3A9DFF"/>
<stop offset="1" stop-color="#295BFF"/>
</linearGradient>
<linearGradient id="paint14_linear_136_316" x1="343.956" y1="127.784" x2="343.956" y2="139.32" gradientUnits="userSpaceOnUse">
<stop stop-color="#3A9DFF"/>
<stop offset="1" stop-color="#295BFF"/>
</linearGradient>
<linearGradient id="paint15_linear_136_316" x1="392.883" y1="206.354" x2="392.883" y2="210.929" gradientUnits="userSpaceOnUse">
<stop stop-color="#3A9DFF"/>
<stop offset="1" stop-color="#295BFF"/>
</linearGradient>
</defs>
</svg>
