<svg width="67" height="67" viewBox="0 0 67 67" fill="none" xmlns="http://www.w3.org/2000/svg">
<path d="M33.5 0C26.8743 0 20.3975 1.96474 14.8884 5.64577C9.37937 9.32679 5.08559 14.5588 2.55005 20.6801C0.0145151 26.8014 -0.648897 33.5372 0.643708 40.0355C1.93631 46.5339 5.12688 52.503 9.81194 57.1881C14.497 61.8731 20.4661 65.0637 26.9645 66.3563C33.4629 67.6489 40.1986 66.9855 46.3199 64.4499C52.4412 61.9144 57.6732 57.6206 61.3542 52.1116C65.0353 46.6025 67 40.1257 67 33.5C66.9903 24.6182 63.4577 16.103 57.1774 9.82264C50.897 3.54227 42.3818 0.00970075 33.5 0V0ZM33.5 61.4167C27.9786 61.4167 22.5812 59.7794 17.9903 56.7118C13.3995 53.6443 9.82132 49.2843 7.70838 44.1832C5.59543 39.0821 5.04259 33.469 6.11976 28.0537C7.19693 22.6384 9.85573 17.6641 13.7599 13.7599C17.6642 9.85572 22.6384 7.19691 28.0537 6.11974C33.469 5.04257 39.0822 5.59542 44.1833 7.70836C49.2844 9.82131 53.6443 13.3995 56.7119 17.9903C59.7794 22.5812 61.4167 27.9786 61.4167 33.5C61.4084 40.9014 58.4645 47.9973 53.2309 53.2309C47.9973 58.4644 40.9014 61.4083 33.5 61.4167V61.4167Z" fill="white"/>
<path d="M44.5947 29.8361L31.9842 21.0337C31.3145 20.5666 30.5295 20.292 29.7147 20.2398C28.8998 20.1875 28.0862 20.3596 27.3623 20.7373C26.6384 21.1149 26.0319 21.6838 25.6086 22.3821C25.1853 23.0803 24.9615 23.8812 24.9614 24.6977V42.3027C24.9608 43.1195 25.1843 43.9208 25.6074 44.6194C26.0306 45.318 26.6372 45.8872 27.3614 46.265C28.0855 46.6428 28.8994 46.8147 29.7145 46.7621C30.5296 46.7095 31.3146 46.4344 31.9842 45.9666L44.5947 37.1641V37.1619C45.1845 36.7503 45.6663 36.2023 45.9989 35.5646C46.3315 34.9268 46.5052 34.2182 46.5052 33.4989C46.5052 32.7796 46.3315 32.071 45.9989 31.4333C45.6663 30.7955 45.1845 30.2476 44.5947 29.836V29.8361Z" fill="white"/>
</svg>
