<svg width="40" height="47" viewBox="0 0 40 47" fill="none" xmlns="http://www.w3.org/2000/svg">
<path d="M35.0199 9.86988C34.7084 9.70876 34.4052 9.53214 34.1113 9.3407C33.2574 8.77608 32.4744 8.11085 31.7792 7.35934C30.0378 5.36772 29.3876 3.34739 29.1497 1.93418H29.1579C28.9589 0.758906 29.041 0 29.0553 0H21.1279V30.6495C21.1279 31.0598 21.1279 31.4679 21.1114 31.8699C21.1114 31.9192 21.1053 31.9643 21.1032 32.0197C21.1032 32.0402 21.1032 32.0648 21.0971 32.0874V32.1058C21.0138 33.2052 20.6616 34.2674 20.0715 35.1987C19.4814 36.1301 18.6714 36.9021 17.7128 37.4469C16.7127 38.0158 15.5816 38.3142 14.431 38.3124C10.7391 38.3124 7.74445 35.3014 7.74445 31.5828C7.74445 27.8621 10.7391 24.8511 14.431 24.8511C15.1304 24.8511 15.8258 24.9618 16.4903 25.1793L16.5006 17.1061C14.4823 16.8458 12.432 17.0066 10.479 17.5785C8.52609 18.1504 6.71289 19.121 5.15391 20.4289C3.78758 21.6156 2.63883 23.0316 1.75935 24.6132C1.42502 25.1895 0.161543 27.5093 0.00976186 31.271C-0.0866397 33.4042 0.555354 35.6194 0.860967 36.5321V36.5526C1.05172 37.09 1.79832 38.9278 3.01257 40.4763C3.99175 41.7193 5.14868 42.8113 6.4461 43.7171V43.6966L6.46456 43.7171C10.3001 46.322 14.5561 46.1517 14.5561 46.1517C15.2925 46.121 17.76 46.1517 20.5618 44.8247C23.6692 43.352 25.4372 41.1594 25.4372 41.1594C26.5676 39.849 27.4665 38.3556 28.0954 36.7433C28.8133 34.8563 29.0512 32.596 29.0512 31.6935V15.4304C29.1476 15.4878 30.4296 16.3349 30.4296 16.3349C30.4296 16.3349 32.2756 17.5184 35.1533 18.2876C37.2167 18.8352 40 18.9521 40 18.9521V11.0821C39.0257 11.1887 37.0464 10.8811 35.0179 9.87193L35.0199 9.86988Z" fill="black"/>
</svg>
