<svg width="37" height="37" viewBox="0 0 37 37" fill="none" xmlns="http://www.w3.org/2000/svg">
<path d="M18.5 0C8.29938 0 0 8.29938 0 18.5C0 28.7006 8.29938 37 18.5 37C28.7006 37 37 28.7006 37 18.5C37 8.29938 28.7006 0 18.5 0ZM18.5 2.84615C27.1623 2.84615 34.1538 9.83773 34.1538 18.5C34.1538 27.1623 27.1623 34.1538 18.5 34.1538C9.83773 34.1538 2.84615 27.1623 2.84615 18.5C2.84615 9.83773 9.83773 2.84615 18.5 2.84615ZM13.1208 11.0715L11.0715 13.1208L16.4565 18.5L11.0744 23.8792L13.1236 25.9285L18.5 20.545L23.8792 25.9242L25.9285 23.8792L20.545 18.5L25.9242 13.1208L23.8792 11.0715L18.5 16.4565L13.1208 11.0744V11.0715Z" fill="white"/>
</svg>
