<svg width="40" height="40" viewBox="0 0 40 40" fill="none" xmlns="http://www.w3.org/2000/svg">
<path d="M34.8649 0H5.13506C2.30378 0 0 2.30378 0 5.13506V34.8649C0 37.6962 2.30378 40 5.13506 40H34.8649C37.6962 40 40 37.6962 40 34.8649V5.13506C40 2.30378 37.6962 0 34.8649 0V0ZM5.13506 2.70272H34.8649C36.2054 2.70272 37.2973 3.79394 37.2973 5.13506V17.4508L32.2131 12.3658C31.3146 11.4673 29.8504 11.4741 28.9433 12.3805L19.2791 22.0446L14.9163 17.681C14.0174 16.7825 12.553 16.7893 11.6465 17.6957L2.70281 26.6394V5.13445C2.70281 3.79323 3.79404 2.70211 5.13516 2.70211L5.13506 2.70272Z" fill="#3A9DFF"/>
<path d="M16.3648 11.6958C16.3648 13.7771 14.6775 15.4645 12.5962 15.4645C10.5148 15.4645 8.82751 13.7772 8.82751 11.6958C8.82751 9.61445 10.5148 7.92719 12.5962 7.92719C14.6775 7.92719 16.3648 9.61445 16.3648 11.6958Z" fill="#3A9DFF"/>
</svg>
