<svg width="36" height="75" viewBox="0 0 36 75" fill="none" xmlns="http://www.w3.org/2000/svg">
<path fill-rule="evenodd" clip-rule="evenodd" d="M18.0438 2C13.5565 2 9.91351 5.64314 9.91351 10.1303C9.91351 14.6174 13.5567 18.2606 18.0438 18.2606C22.531 18.2606 26.1741 14.6174 26.1741 10.1303C26.1741 5.64314 22.531 2 18.0438 2V2ZM18.0438 3.47819C21.7151 3.47819 24.696 6.45909 24.696 10.1304C24.696 13.8018 21.7151 16.7827 18.0438 16.7827C14.3725 16.7827 11.3916 13.8018 11.3916 10.1304C11.3916 6.45909 14.3725 3.47819 18.0438 3.47819Z" stroke="#3A9DFF" stroke-width="3"/>
<path fill-rule="evenodd" clip-rule="evenodd" d="M18.0438 19.7394C10.2879 19.7394 4 26.0271 4 33.7826V35.261C4 35.6688 4.33113 36 4.73922 36C5.14731 36 5.47844 35.6688 5.47844 35.261V33.7826C5.47844 26.8427 11.1039 21.2174 18.0436 21.2174C24.9832 21.2174 30.6087 26.8431 30.6087 33.7826V35.261C30.6087 35.6688 30.9398 36 31.3479 36C31.756 36 32.0871 35.6688 32.0871 35.261V33.7826C32.0871 26.0267 25.7992 19.7394 18.0433 19.7394H18.0438Z" stroke="#3A9DFF" stroke-width="3"/>
<path d="M3.04351 53.8818H1.69586V51.647H5.89605V65H3.04351V53.8818ZM8.4849 65.1235C8.2004 65.1235 7.96456 65.1048 7.77738 65.0674V62.4844C8.03194 62.5293 8.32393 62.5518 8.65336 62.5518C9.59672 62.5293 10.3716 62.2747 10.9781 61.7881C11.592 61.2939 12.0225 60.6239 12.2696 59.7778V53.8818H9.29349V51.647H15.066V58.4639C15.066 59.1676 15.1371 59.8677 15.2793 60.564L16.2002 65H13.5498L12.7637 61.4624H12.6963C12.5915 62.1287 12.3407 62.7427 11.9439 63.3042C11.5546 63.8582 11.0567 64.3 10.4502 64.6294C9.85127 64.9588 9.19616 65.1235 8.4849 65.1235ZM19.272 53.8818H17.9243V51.647H22.1245V65H19.272V53.8818ZM35.2026 53.4551L30.5645 65H27.5322L32.1255 53.8818H24.646V47.75H27.4985V51.647H35.2026V53.4551Z" fill="#3A9DFF"/>
</svg>
