<svg width="36" height="49" viewBox="0 0 36 49" fill="none" xmlns="http://www.w3.org/2000/svg">
<path d="M35.1429 17.1429C35.1429 7.68571 27.4572 0 18 0C8.54289 0 0.857178 7.68571 0.857178 17.1429C0.857178 30 18 48.5714 18 48.5714C18 48.5714 35.1429 30 35.1429 17.1429ZM12.2857 17.1429C12.2857 14 14.8572 11.4286 18 11.4286C21.1429 11.4286 23.7143 14 23.7143 17.1429C23.7143 18.6584 23.1123 20.1118 22.0406 21.1835C20.969 22.2551 19.5156 22.8571 18 22.8571C16.4845 22.8571 15.0311 22.2551 13.9594 21.1835C12.8878 20.1118 12.2857 18.6584 12.2857 17.1429Z" fill="#3A9DFF"/>
</svg>
