<svg width="40" height="40" viewBox="0 0 40 40" fill="none" xmlns="http://www.w3.org/2000/svg">
<path d="M38.7713 1.22932C37.8598 0.319692 36.5824 -0.122644 35.3035 0.0294631L25.1718 1.24338C22.6504 1.54584 21.0434 1.94926 18.5079 4.48476L0.731859 22.2607C0.263868 22.7283 0.000742635 23.363 1.57253e-06 24.025C-0.00074063 24.6867 0.261273 25.3217 0.728523 25.7908L14.2092 39.2715C14.6779 39.7387 15.3133 40.0007 15.975 40C16.6367 39.9993 17.2714 39.7361 17.7393 39.2678L35.5153 21.4918C38.0509 18.9562 38.4543 17.3497 38.7567 14.8279L39.9706 4.69625C40.1224 3.41773 39.6804 2.13997 38.7708 1.22884L38.7713 1.22932ZM35.5351 8.9105C34.9457 9.49948 34.1467 9.83052 33.3135 9.83052C32.48 9.83052 31.6809 9.49948 31.0919 8.9105C30.5026 8.32116 30.1716 7.52216 30.1716 6.68894C30.1716 5.85577 30.5026 5.05633 31.0919 4.46737C31.6809 3.87803 32.4799 3.54698 33.3135 3.54698C34.1467 3.54698 34.9458 3.87803 35.5351 4.46737C36.1241 5.05634 36.4551 5.85572 36.4551 6.68894C36.4551 7.52211 36.1241 8.32117 35.5351 8.9105Z" fill="#3A9DFF"/>
</svg>
