<svg width="40" height="38" viewBox="0 0 40 38" fill="none" xmlns="http://www.w3.org/2000/svg">
<path d="M39.6658 16.335L21.3105 0.478732C20.9486 0.169681 20.4891 0 20.0143 0C19.5395 0 19.08 0.169681 18.7181 0.478732L0.372232 16.335C-0.0536917 16.7037 -0.123729 17.3403 0.212047 17.7931L0.662438 18.4065L3.00455 21.453C3.18216 21.6903 3.44958 21.8432 3.74347 21.8755C4.03703 21.9078 4.33126 21.8169 4.55579 21.624L5.00618 21.2419L5.92703 20.4477V35.5301C5.92703 36.0633 6.13782 36.5747 6.51314 36.9521C6.88847 37.3292 7.39779 37.5409 7.92865 37.5409H14.9348V30.4122C14.9348 29.9735 15.2887 29.6176 15.7254 29.6176H24.3531C24.5629 29.6176 24.764 29.7015 24.9124 29.8503C25.0605 29.9994 25.144 30.2014 25.144 30.4121V37.551H32.1502H32.1498C32.681 37.551 33.19 37.3393 33.5653 36.9619C33.9407 36.5848 34.1518 36.0734 34.1518 35.5402V20.4578L35.0726 21.252L35.523 21.6341H35.5227C35.7465 21.8128 36.0321 21.8943 36.3162 21.8603C36.6001 21.8263 36.8584 21.6795 37.034 21.453L39.7763 17.7729H39.7766C40.1124 17.3363 40.0648 16.7152 39.6664 16.335L39.6658 16.335Z" fill="#3A9DFF"/>
</svg>
