<svg width="215" height="216" viewBox="0 0 215 216" fill="none" xmlns="http://www.w3.org/2000/svg">
<path d="M213.336 93.1039C214.254 91.8668 213.895 90.0452 212.533 89.0347C187.64 70.558 154.49 75.9428 133.715 86.1138C121.793 91.877 114.466 100.033 112.327 109.608C112.151 110.405 112.024 111.217 111.951 112.038C76.5546 104.158 40.5122 106.872 8.70399 119.814C7.95119 120.068 7.36921 120.624 7.09654 121.351C6.823 122.078 6.88393 122.911 7.26246 123.65C7.64128 124.391 8.30584 124.973 9.09726 125.258C9.88954 125.544 10.7375 125.507 11.4409 125.157C42.5001 112.477 77.7498 109.91 112.304 117.809C113.075 122.045 115.079 126.083 118.074 129.433C121.598 133.54 126.878 135.8 132.075 135.426C134.527 135.347 136.765 134.347 138.327 132.633C139.885 130.852 140.295 128.321 139.41 125.956C137.796 121.469 132.136 117.593 127.377 116.075C124.233 115.069 121.07 114.158 117.888 113.339L117.889 113.341C117.924 112.625 118.015 111.918 118.159 111.225C120.409 101.155 129.509 94.8007 136.766 91.2727C156.04 81.8873 186.583 76.7899 209.207 93.5152C210.569 94.5257 212.416 94.342 213.334 93.1048L213.336 93.1039ZM118.665 119.474C121.114 120.134 123.553 120.855 125.978 121.637C129.42 122.733 133.058 125.456 133.816 127.455L133.817 127.454C134.024 127.927 133.928 128.45 133.572 128.778C132.904 129.378 132.011 129.703 131.06 129.692C127.802 129.911 124.502 128.476 122.314 125.887C120.638 124.003 119.39 121.809 118.666 119.474L118.665 119.474Z" fill="#B3BBCE"/>
<path d="M32.2343 128.331C32.9976 127.324 33.1285 125.974 32.5729 124.839C32.0183 123.705 30.8716 122.981 29.6084 122.966C23.8823 122.825 18.1137 122.403 12.4066 121.749L12.4059 121.75C17.7034 116.91 22.7173 111.766 27.4207 106.347C28.004 105.676 28.2958 104.8 28.2332 103.912C28.1705 103.025 27.7589 102.198 27.0869 101.616C25.6882 100.401 23.5692 100.55 22.3546 101.949C16.2629 108.962 9.63497 115.49 2.53085 121.474C1.52714 122.314 1.10702 123.664 1.45486 124.926C1.80269 126.187 2.85456 127.131 4.14719 127.339C12.5153 128.663 20.9622 129.432 29.4309 129.639C30.523 129.686 31.5699 129.199 32.234 128.332L32.2343 128.331Z" fill="#B3BBCE"/>
</svg>
