<svg width="214" height="204" viewBox="0 0 214 204" fill="none" xmlns="http://www.w3.org/2000/svg">
<path d="M196.527 94.5242C201.438 98.2875 206.116 102.343 210.538 106.669C211.828 107.93 211.851 109.998 210.59 111.288C209.329 112.579 207.261 112.601 205.971 111.34C180.191 86.3208 146.517 71.0423 110.712 68.1192C74.851 65.5801 39.2206 75.5906 9.9274 96.4346C8.47681 97.3718 6.54701 97.009 5.53706 95.608C4.52641 94.2079 4.79016 92.2615 6.13767 91.1806C36.666 69.4479 73.8042 59.0049 111.186 61.6413C142.203 64.1737 171.833 75.5908 196.527 94.5241L196.527 94.5242Z" fill="#B3BBCE"/>
<path d="M14.7773 81.9486C15.4526 82.4806 15.8886 83.2597 15.9897 84.1144C16.0901 84.9685 15.8471 85.8285 15.3143 86.5031L11.6808 91.2366C14.5094 90.9364 17.3616 90.772 20.2356 90.7439L20.2358 90.7453C22.0277 90.7056 23.5123 92.1258 23.5519 93.9177C23.5915 95.7096 22.1714 97.1941 20.3795 97.2338C15.4518 97.3142 10.5374 97.7798 5.68199 98.6259C4.43217 98.852 3.16516 98.3275 2.44089 97.285C1.71595 96.2419 1.6665 94.872 2.31511 93.7796C4.67218 89.8179 7.28915 86.0173 10.1485 82.4024C10.6954 81.7174 11.4957 81.2828 12.3672 81.1971C13.2388 81.1127 14.1079 81.3826 14.7771 81.9484L14.7773 81.9486Z" fill="#B3BBCE"/>
</svg>
