<svg width="27" height="24" viewBox="0 0 27 24" fill="none" xmlns="http://www.w3.org/2000/svg">
<path d="M5.11868 9.48706H0.731254C0.321603 9.48706 0 9.80865 0 10.2183V21.9184C0 22.328 0.321588 22.6496 0.731254 22.6496H5.11868C5.52834 22.6496 5.84955 22.3281 5.84955 21.9184L5.84974 10.2188C5.85012 9.80896 5.52853 9.48735 5.11868 9.48735L5.11868 9.48706Z" fill="#3A9DFF"/>
<path d="M26.274 10.8729C26.274 9.68145 25.4559 8.47541 23.8932 8.47541H16.809C17.821 6.665 18.1187 4.11867 17.4151 2.25589C16.8984 0.885635 15.9107 0.0858795 14.6328 0.00461292L14.6121 0.00291936C13.7804 -0.0480757 13.0606 0.574964 12.9913 1.40516C12.8092 3.253 11.9995 6.52154 10.8392 7.68201C9.86222 8.65899 9.02595 9.06826 7.63951 9.74609C7.43892 9.84432 7.2197 9.95138 6.98788 10.0669C6.99202 10.1172 6.99466 10.1672 6.99466 10.2186V21.7992C7.16195 21.8566 7.32716 21.9134 7.48953 21.9691C9.77752 22.7577 11.7548 23.4386 14.777 23.4386H20.5042C22.0672 23.4386 22.885 22.2322 22.885 21.041C22.885 20.6874 22.8133 20.3329 22.6712 20.0083C23.1917 19.9148 23.6475 19.6643 23.985 19.2812C24.3681 18.8458 24.5793 18.2671 24.5793 17.6516C24.5793 17.2992 24.5076 16.9448 24.3661 16.621C25.6208 16.4044 26.2741 15.3273 26.2741 14.2626C26.2741 13.645 26.0542 13.0233 25.6249 12.5681C26.0534 12.1125 26.2738 11.4908 26.2738 10.8732L26.274 10.8729Z" fill="#3A9DFF"/>
</svg>
