<svg width="23" height="23" viewBox="0 0 23 23" fill="none" xmlns="http://www.w3.org/2000/svg">
<path d="M4.79167 0C3.52084 0 2.30206 0.504835 1.40345 1.40345C0.504835 2.30206 0 3.52084 0 4.79167V18.2083C0 19.4792 0.504835 20.6979 1.40345 21.5966C2.30206 22.4952 3.52084 23 4.79167 23H18.2083C19.4792 23 20.6979 22.4952 21.5966 21.5966C22.4952 20.6979 23 19.4792 23 18.2083V4.79167C23 3.52084 22.4952 2.30206 21.5966 1.40345C20.6979 0.504835 19.4792 0 18.2083 0H4.79167ZM16.9702 9.3035L10.2618 16.0118C10.1728 16.1011 10.0671 16.1719 9.95063 16.2202C9.8342 16.2685 9.70939 16.2934 9.58333 16.2934C9.45728 16.2934 9.33246 16.2685 9.21604 16.2202C9.09961 16.1719 8.99385 16.1011 8.90483 16.0118L6.02983 13.1368C5.94073 13.0477 5.87005 12.942 5.82183 12.8255C5.77361 12.7091 5.74879 12.5843 5.74879 12.4583C5.74879 12.3323 5.77361 12.2075 5.82183 12.0911C5.87005 11.9747 5.94073 11.8689 6.02983 11.7798C6.20978 11.5999 6.45385 11.4988 6.70833 11.4988C6.83434 11.4988 6.95912 11.5236 7.07554 11.5718C7.19195 11.6201 7.29773 11.6907 7.38683 11.7798L9.58333 13.9783L15.6132 7.9465C15.7931 7.76655 16.0372 7.66546 16.2917 7.66546C16.5462 7.66546 16.7902 7.76655 16.9702 7.9465C17.1501 8.12645 17.2512 8.37051 17.2512 8.625C17.2512 8.87949 17.1501 9.12355 16.9702 9.3035V9.3035Z" fill="#3A9DFF"/>
</svg>
