<svg width="75" height="57" viewBox="0 0 75 57" fill="none" xmlns="http://www.w3.org/2000/svg">
<path d="M67.1631 56.25H7.83691C3.51562 56.25 0 52.7426 0 48.4289V7.82168C0 3.50859 3.51562 0 7.83691 0H67.1631C71.4844 0 75 3.50859 75 7.82168V48.4277C75 52.7414 71.4844 56.25 67.1631 56.25ZM7.83691 4.6875C6.1002 4.6875 4.6875 6.09316 4.6875 7.82168V48.4289C4.6875 50.1562 6.1002 51.5625 7.83691 51.5625H67.1631C68.8998 51.5625 70.3125 50.1574 70.3125 48.4277V7.82168C70.3125 6.09316 68.8998 4.6875 67.1631 4.6875H7.83691Z" fill="black" fill-opacity="0.5"/>
<path d="M27.3879 21.6908C30.1618 21.6908 32.4105 19.4421 32.4105 16.6682C32.4105 13.8942 30.1618 11.6455 27.3879 11.6455C24.614 11.6455 22.3652 13.8942 22.3652 16.6682C22.3652 19.4421 24.614 21.6908 27.3879 21.6908Z" fill="black" fill-opacity="0.5"/>
<path d="M43.6406 18.6703C42.985 18.6703 42.3305 19.101 41.8324 19.9617L31.7285 37.4636C30.7957 35.8453 27.3949 29.9572 27.3949 29.9572C26.8981 29.0965 26.2436 28.6664 25.5885 28.6664C24.934 28.6664 24.2789 29.0965 23.782 29.9572C23.782 29.9572 19.6447 37.1244 18.6492 38.8465L17.1311 41.4779C16.1379 43.1994 16.9494 44.6045 18.9381 44.6045H56.0625C58.0483 44.6045 58.8598 43.1994 57.8707 41.4779L45.4465 19.9617C44.9508 19.101 44.2969 18.6703 43.6406 18.6703Z" fill="black" fill-opacity="0.5"/>
</svg>
