<svg width="200" height="160" viewBox="0 0 200 160" fill="none" xmlns="http://www.w3.org/2000/svg">
<path d="M90.0616 129.636C89.7424 129.317 89.4233 129.636 89.1041 129.956L85.2743 144.637C84.9552 145.275 85.9126 145.913 86.5509 145.594L99.317 140.488C99.6361 140.488 99.6361 139.849 99.6361 139.53L90.0616 129.636Z" fill="white" fill-opacity="0.59"/>
<path d="M196.659 61.9765C196.34 61.9765 196.021 61.9765 196.021 61.9765L180.064 63.5723L54.9564 81.1256C53.0415 81.4447 52.4032 83.6788 53.6798 84.9554L71.2331 103.147L75.7012 107.615L78.2544 139.849C78.2544 140.488 79.531 140.807 79.531 139.849L85.5949 117.509V117.19L154.531 84.3171C155.489 83.9979 156.446 84.3171 156.766 84.9554C157.085 85.9128 156.766 86.8703 156.127 87.1894L92.297 123.892L91.9779 124.849L125.808 159.318C126.765 160.275 128.361 160.275 128.999 158.998L197.617 68.3595L198.574 67.0829C200.489 65.4872 199.213 62.2957 196.659 61.9765Z" fill="white"/>
<path d="M68.9984 143.998C67.0834 144.317 64.8494 144.317 62.6153 144.317H62.2962C60.7004 144.317 59.4238 145.594 59.4238 147.19C59.4238 148.786 60.7004 150.062 62.2962 150.062H62.6153C65.1685 150.062 67.7218 149.743 69.9558 149.424C71.5516 149.105 72.8282 147.509 72.509 145.913C72.1899 144.956 70.5941 143.679 68.9984 143.998Z" fill="white" fill-opacity="0.59"/>
<path d="M23.9932 42.5084C24.6315 42.5084 25.589 42.1892 26.2273 41.5509C29.0997 38.3594 32.6103 35.4871 36.121 32.9338C37.3976 31.9764 37.7167 30.0615 36.7593 28.7849C35.8018 27.5083 33.8869 27.1891 32.6103 28.1466C28.7805 31.0189 25.2698 34.2104 22.0783 37.402C20.8017 38.6786 21.1209 40.5935 22.0783 41.5509C22.3975 42.1892 23.0358 42.5084 23.9932 42.5084Z" fill="white" fill-opacity="0.59"/>
<path d="M45.3806 25.9124C46.0189 25.9124 46.3381 25.9124 46.9764 25.5932C50.8062 23.3592 54.636 21.4443 58.7849 19.5294C60.3807 18.8911 61.019 16.9762 60.3807 15.6996C59.7424 14.1038 57.8275 13.4655 56.5509 14.1038C52.0828 16.0187 47.9338 18.2528 44.104 20.4868C42.8274 21.4443 42.1891 23.04 43.1465 24.6358C43.4657 25.5932 44.4231 25.9124 45.3806 25.9124Z" fill="white" fill-opacity="0.59"/>
<path d="M7.72321 64.8486C8.04236 64.8486 8.36151 65.1678 8.68066 65.1678C9.95726 65.1678 10.9147 64.5295 11.553 63.2529C13.1488 59.1039 15.3828 55.2741 17.6169 51.7634C18.5743 50.4868 18.2552 48.5719 16.6594 47.6145C15.3828 46.657 13.4679 46.9762 12.5105 48.5719C9.95726 52.4017 7.72321 56.5507 5.8083 61.0188C5.8083 61.0188 5.8083 61.0188 5.8083 61.338C5.48915 62.6146 6.12745 64.2103 7.72321 64.8486Z" fill="white" fill-opacity="0.59"/>
<path d="M70.2725 14.7422C70.5916 14.7422 70.9108 14.7422 71.2299 14.423C75.3789 13.1464 79.5278 11.5507 83.9959 10.2741C85.5917 9.95493 86.5492 8.04002 85.9109 6.76342C85.5917 5.16766 83.6768 4.21021 82.4002 4.84851C77.9321 6.12511 73.464 7.40172 69.315 8.99747C67.7193 9.63577 67.0809 11.2315 67.4001 12.8273C68.0384 14.1039 68.9959 14.7422 70.2725 14.7422Z" fill="white" fill-opacity="0.59"/>
<path d="M25.5948 133.785C22.0841 131.232 18.8926 128.36 16.3394 125.168C15.3819 123.892 13.467 123.572 12.1904 124.849C10.9138 125.807 10.5947 127.721 11.8713 128.998C14.7436 132.509 18.2543 136.019 22.4033 138.892C23.0416 139.211 23.3607 139.53 23.999 139.53C24.9565 139.53 25.9139 139.211 26.5522 138.253C27.1905 136.658 26.8714 134.743 25.5948 133.785Z" fill="white" fill-opacity="0.59"/>
<path d="M49.5272 143.36C45.059 142.722 40.9101 141.445 37.0803 139.849C35.4845 139.211 33.8888 139.849 33.2505 141.445C32.6122 143.041 33.2505 144.637 34.8462 145.275C39.3143 146.871 43.7824 148.147 48.5697 149.105C48.8889 149.105 48.8889 149.105 49.208 149.105C50.4846 149.105 51.7612 148.147 52.0804 146.551C52.0804 144.956 51.1229 143.679 49.5272 143.36Z" fill="white" fill-opacity="0.59"/>
<path d="M2.61369 91.3383C4.20944 91.3383 5.80519 90.0617 5.80519 88.4659C6.12435 84.317 6.76265 79.8489 7.7201 75.3807C8.03925 73.785 7.0818 72.1892 5.48604 71.8701C3.89029 71.5509 2.29454 72.5084 1.97538 74.1041C1.01793 78.8914 0.0604792 83.3595 0.0604792 88.1468C-0.258672 90.0617 0.698781 91.3383 2.61369 91.3383Z" fill="white" fill-opacity="0.59"/>
<path d="M6.12439 101.551C5.80524 99.9555 4.20949 98.6789 2.61374 98.9981C1.33713 99.3172 0.0605289 100.913 0.37968 102.509C1.01798 107.296 2.29458 112.083 4.20949 116.232C4.52864 117.509 5.80524 118.147 7.08185 118.147C7.401 118.147 7.72015 118.147 8.35845 117.828C9.9542 117.19 10.5925 115.594 9.9542 113.998C8.0393 110.168 6.7627 106.019 6.12439 101.551Z" fill="white" fill-opacity="0.59"/>
<path d="M96.4413 7.40162C96.7605 7.40162 96.7605 7.40162 97.0796 7.40162C99.6328 6.76332 101.867 6.12501 104.101 5.80586C105.697 5.48671 106.654 3.89096 106.335 2.2952C106.016 0.699451 104.42 -0.258001 102.824 0.0611499C100.59 0.699452 98.0371 1.0186 95.803 1.6569C94.2073 1.97605 93.2498 3.57181 93.569 5.16756C93.8881 6.44417 95.1647 7.40162 96.4413 7.40162Z" fill="white" fill-opacity="0.59"/>
</svg>
