<svg width="33" height="23" viewBox="0 0 33 23" fill="none" xmlns="http://www.w3.org/2000/svg">
<path d="M16.5204 23H16.4874C16.3852 23 6.15873 22.9803 3.57861 22.2827C2.88147 22.0957 2.24589 21.7297 1.7355 21.2212C1.22512 20.7128 0.857834 20.0797 0.670421 19.3855C0.206468 16.7795 -0.0175766 14.1367 0.00107523 11.4902C-0.0109027 8.83923 0.219205 6.19272 0.688556 3.58329C0.881265 2.88792 1.25025 2.25355 1.76009 1.74104C2.26993 1.22853 2.90352 0.855102 3.60004 0.65658C6.10927 1.46757e-07 16.0538 0 16.4759 0H16.5105C16.6144 0 26.8672 0.0196971 29.421 0.717313C30.8371 1.09977 31.9434 2.20118 32.3259 3.61119C32.804 6.22766 33.0298 8.88189 32.9968 11.541C33.0084 14.1887 32.7777 16.832 32.3077 19.4381C32.1179 20.1315 31.7491 20.7634 31.2381 21.2711C30.727 21.7788 30.0915 22.1445 29.3946 22.3319C26.8887 22.9934 16.9424 23 16.5204 23ZM13.2231 6.57401L13.2149 16.4227L21.8076 11.4984L13.2231 6.57401Z" fill="white"/>
</svg>
