<svg width="23" height="23" viewBox="0 0 23 23" fill="none" xmlns="http://www.w3.org/2000/svg">
<path d="M19.5931 19.6004H16.1913V14.2624C16.1913 12.9896 16.1647 11.3537 14.4124 11.3537C12.6385 11.3537 12.3682 12.7344 12.3682 14.1683V19.5997H8.96209V8.62401H12.2338V10.1211H12.2777C12.7348 9.25649 13.8467 8.3473 15.5056 8.3473C18.9563 8.3473 19.5967 10.6192 19.5967 13.5732V19.5997L19.5931 19.6004ZM5.11391 7.12403C4.85392 7.12412 4.59646 7.07293 4.35629 6.97337C4.11612 6.87381 3.89795 6.72786 3.71427 6.54385C3.5306 6.35985 3.38503 6.14142 3.28591 5.90108C3.18679 5.66073 3.13606 5.4032 3.13662 5.14321C3.13705 4.7519 3.2535 4.36951 3.47125 4.04437C3.68899 3.71923 3.99826 3.46596 4.35995 3.31657C4.72163 3.16719 5.11949 3.1284 5.50322 3.2051C5.88695 3.28181 6.23932 3.47057 6.51578 3.74752C6.79223 4.02447 6.98036 4.37717 7.05637 4.76103C7.13239 5.14489 7.09287 5.54266 6.94282 5.90406C6.79277 6.26546 6.53893 6.57426 6.21339 6.79141C5.88785 7.00856 5.50523 7.12431 5.11391 7.12403ZM6.82022 19.6004H3.40687V8.62473H6.82022V19.6004ZM21.3009 0H1.69625C0.759719 0 0 0.741008 0 1.6581V21.3419C0 22.259 0.759719 23 1.69625 23H21.2973C22.2324 23 23 22.259 23 21.3419V1.6581C23 0.741008 22.2324 0 21.2973 0H21.3009Z" fill="white"/>
</svg>
