<svg width="23" height="24" viewBox="0 0 23 24" fill="none" xmlns="http://www.w3.org/2000/svg">
<path d="M22.7835 6.92902C22.7707 5.9677 22.5908 5.01593 22.2517 4.1163C21.9577 3.35747 21.5086 2.66831 20.9331 2.09286C20.3577 1.51741 19.6685 1.06832 18.9097 0.774294C18.0216 0.440927 17.0834 0.260669 16.1351 0.241197C14.914 0.186618 14.5269 0.171387 11.4273 0.171387C8.32773 0.171387 7.93044 0.171387 6.71828 0.241197C5.77034 0.260812 4.83258 0.441068 3.94491 0.774294C3.18596 1.06812 2.4967 1.51713 1.92122 2.09261C1.34574 2.66808 0.896731 3.35735 0.602907 4.1163C0.268872 5.00369 0.0890057 5.94166 0.0710795 6.88967C0.0165006 8.11199 0 8.49911 0 11.5987C0 14.6983 -9.45685e-09 15.0943 0.0710795 16.3077C0.0901187 17.2571 0.269087 18.1939 0.602907 19.0836C0.897224 19.8423 1.34657 20.5313 1.92224 21.1066C2.49791 21.6818 3.18724 22.1306 3.94618 22.4244C4.83142 22.7711 5.76934 22.9643 6.71955 22.9955C7.94187 23.0501 8.329 23.0666 11.4286 23.0666C14.5281 23.0666 14.9254 23.0666 16.1376 22.9955C17.0859 22.9769 18.0242 22.797 18.9122 22.4637C19.6709 22.1693 20.3598 21.7201 20.9353 21.1447C21.5107 20.5693 21.9599 19.8803 22.2542 19.1217C22.5881 18.2332 22.767 17.2965 22.7861 16.3458C22.8406 15.1247 22.8571 14.7376 22.8571 11.6368C22.8546 8.53719 22.8546 8.14372 22.7835 6.92902ZM11.4197 17.4602C8.17795 17.4602 5.55182 14.8341 5.55182 11.5923C5.55182 8.35061 8.17795 5.72447 11.4197 5.72447C12.9759 5.72447 14.4685 6.3427 15.5689 7.44313C16.6693 8.54357 17.2876 10.0361 17.2876 11.5923C17.2876 13.1486 16.6693 14.6411 15.5689 15.7416C14.4685 16.842 12.9759 17.4602 11.4197 17.4602ZM17.5211 6.87571C17.3414 6.87588 17.1634 6.8406 16.9973 6.7719C16.8312 6.70319 16.6803 6.60241 16.5532 6.47532C16.4261 6.34823 16.3253 6.19733 16.2566 6.03124C16.1879 5.86516 16.1527 5.68716 16.1528 5.50743C16.1528 5.32783 16.1882 5.14998 16.2569 4.98405C16.3257 4.81812 16.4264 4.66735 16.5534 4.54036C16.6804 4.41336 16.8312 4.31262 16.9971 4.24389C17.163 4.17516 17.3409 4.13978 17.5205 4.13978C17.7001 4.13978 17.8779 4.17516 18.0438 4.24389C18.2098 4.31262 18.3605 4.41336 18.4875 4.54036C18.6145 4.66735 18.7153 4.81812 18.784 4.98405C18.8527 5.14998 18.8881 5.32783 18.8881 5.50743C18.8881 6.26392 18.2763 6.87571 17.5211 6.87571Z" fill="white"/>
</svg>
